<svg xmlns="http://www.w3.org/2000/svg" width="24" height="29" viewBox="0 0 24 29">
    <g fill="none" fill-rule="evenodd">
        <g fill="#e20074">
            <g>
                <path d="M0 19.705L6 19.705 6 13.642 0 13.642z" transform="translate(-18.000000, -34.000000) translate(18.000000, 34.000000)"/>
                <path d="M14.284 1.35c4.858.07 7.722 3.231 8.157 9.02L24 10.12 23.71 0H.29L0 10.156l1.559.249c.435-5.788 3.263-8.949 8.157-9.02v21.236c0 3.87-.689 4.474-4.93 4.545V28.8h14.429v-1.634c-4.242-.035-4.931-.674-4.931-4.545V1.349z" transform="translate(-18.000000, -34.000000) translate(18.000000, 34.000000)"/>
                <path d="M18 19.705L24 19.705 24 13.642 18 13.642z" transform="translate(-18.000000, -34.000000) translate(18.000000, 34.000000)"/>
            </g>
        </g>
    </g>
</svg>
